<?xml version="1.0" standalone="no"?>
<!DOCTYPE svg PUBLIC "-//W3C//DTD SVG 20010904//EN"
 "http://www.w3.org/TR/2001/REC-SVG-20010904/DTD/svg10.dtd">
<svg version="1.0" xmlns="http://www.w3.org/2000/svg"
 width="2048.000000pt" height="2048.000000pt" viewBox="0 0 2048.000000 2048.000000"
 preserveAspectRatio="xMidYMid meet">

<g transform="translate(0.000000,2048.000000) scale(0.100000,-0.100000)"
fill="#000000" stroke="none">
<path d="M12499 20026 c-5 -5 -215 -43 -312 -56 -74 -10 -164 -39 -332 -107
-103 -41 -127 -51 -212 -89 -18 -8 -48 -20 -65 -28 -85 -37 -110 -48 -213 -90
-184 -75 -184 -75 -305 -128 -25 -11 -54 -24 -65 -28 -11 -5 -40 -18 -65 -28
-25 -11 -76 -32 -115 -47 -62 -24 -168 -70 -290 -124 -45 -20 -102 -44 -220
-91 -84 -34 -150 -62 -200 -85 -16 -7 -51 -23 -77 -34 -27 -12 -68 -30 -92
-41 -24 -11 -48 -20 -54 -20 -6 0 -23 -6 -39 -14 -15 -8 -53 -24 -83 -36 -30
-12 -73 -30 -95 -40 -22 -9 -58 -25 -80 -34 -41 -18 -79 -34 -137 -60 -101
-45 -128 -56 -134 -56 -3 0 -102 -41 -218 -91 -116 -51 -249 -107 -296 -126
-47 -19 -99 -40 -117 -48 -17 -8 -34 -15 -37 -15 -3 0 -41 -16 -83 -36 -43
-19 -94 -42 -113 -50 -19 -8 -48 -21 -63 -29 -16 -8 -33 -15 -39 -15 -5 0 -24
-6 -41 -14 -18 -8 -61 -27 -97 -41 -36 -14 -78 -32 -95 -40 -16 -8 -52 -23
-80 -35 -75 -33 -106 -46 -145 -64 -19 -8 -64 -26 -100 -40 -70 -27 -192 -78
-281 -118 -112 -52 -206 -91 -281 -119 -42 -15 -85 -33 -95 -38 -10 -6 -40
-20 -68 -31 -48 -20 -73 -31 -147 -64 -18 -8 -62 -27 -98 -41 -36 -14 -74 -30
-85 -35 -11 -5 -45 -19 -75 -31 -52 -20 -106 -43 -175 -74 -16 -8 -52 -23 -80
-35 -27 -12 -59 -26 -70 -31 -11 -5 -58 -24 -105 -42 -71 -28 -397 -167 -465
-197 -11 -5 -71 -30 -132 -55 -62 -24 -121 -49 -130 -54 -10 -5 -40 -19 -68
-31 -27 -12 -63 -28 -80 -35 -16 -8 -59 -25 -95 -39 -72 -27 -199 -80 -245
-101 -16 -8 -52 -23 -80 -35 -27 -12 -65 -28 -82 -36 -40 -17 -83 -35 -148
-62 -239 -99 -425 -180 -510 -224 -155 -80 -297 -216 -367 -353 -42 -81 -71
-134 -131 -238 -31 -54 -57 -102 -57 -107 0 -5 -9 -29 -19 -52 -26 -59 -54
-132 -130 -348 -7 -19 -28 -78 -47 -130 -20 -52 -41 -113 -49 -135 -7 -22 -21
-60 -31 -85 -9 -25 -34 -92 -54 -150 -21 -58 -54 -150 -75 -205 -20 -55 -41
-116 -47 -135 -6 -19 -13 -39 -16 -45 -8 -12 -39 -98 -52 -140 -5 -16 -20 -61
-35 -100 -14 -38 -33 -88 -41 -110 -8 -22 -28 -79 -44 -128 -17 -48 -34 -95
-40 -105 -5 -9 -20 -51 -34 -92 -14 -41 -42 -120 -62 -175 -31 -85 -92 -254
-124 -345 -5 -14 -21 -56 -35 -95 -14 -38 -32 -88 -39 -110 -7 -22 -24 -69
-38 -105 -13 -36 -30 -81 -37 -100 -7 -19 -28 -78 -47 -130 -20 -52 -41 -113
-49 -135 -7 -22 -30 -85 -50 -140 -20 -55 -43 -118 -50 -140 -8 -22 -22 -60
-31 -85 -9 -25 -34 -92 -54 -150 -21 -58 -54 -150 -75 -205 -20 -55 -42 -118
-50 -140 -7 -22 -23 -65 -35 -95 -11 -30 -34 -94 -50 -143 -17 -48 -34 -95
-40 -105 -5 -9 -21 -53 -36 -97 -45 -134 -54 -159 -63 -180 -15 -37 -49 -129
-75 -205 -14 -41 -35 -100 -47 -130 -11 -30 -27 -73 -34 -95 -30 -87 -84 -235
-91 -246 -3 -6 -10 -25 -15 -43 -8 -33 -35 -108 -69 -196 -12 -30 -27 -73 -35
-95 -7 -22 -30 -85 -50 -140 -20 -55 -43 -118 -50 -140 -8 -22 -23 -65 -35
-95 -11 -30 -34 -94 -50 -143 -17 -48 -34 -95 -40 -105 -5 -9 -21 -53 -36 -97
-38 -112 -59 -171 -84 -235 -11 -30 -35 -95 -51 -145 -17 -49 -35 -94 -40 -99
-5 -6 -9 -17 -9 -25 0 -9 -10 -40 -21 -71 -12 -30 -27 -71 -34 -90 -7 -19 -27
-73 -45 -120 -17 -47 -35 -98 -40 -115 -5 -16 -22 -70 -39 -120 -18 -49 -39
-112 -49 -140 -13 -40 -17 -85 -17 -220 0 -220 3 -229 158 -510 131 -239 99
-202 777 -889 223 -226 524 -532 670 -680 146 -148 353 -358 460 -466 107
-109 343 -348 524 -531 181 -184 498 -505 704 -714 207 -209 495 -501 641
-650 147 -148 581 -589 966 -979 1426 -1446 1357 -1378 1475 -1444 61 -34 246
-108 383 -152 222 -72 430 -56 732 55 55 21 121 43 146 50 26 7 55 18 65 23
11 5 55 21 99 36 111 36 167 55 190 66 11 5 36 13 55 19 19 5 80 26 135 46 55
21 120 44 145 51 25 7 70 22 100 34 114 41 287 101 330 114 25 7 90 30 145 51
55 20 118 41 140 46 21 6 44 14 50 18 5 5 26 13 45 19 19 6 87 29 150 52 63
22 129 45 145 49 37 10 132 43 205 71 30 12 71 26 90 32 59 17 142 46 210 73
36 14 81 30 100 35 19 5 87 27 150 50 63 22 174 61 245 85 72 24 162 56 200
70 39 14 84 30 101 34 33 9 116 37 149 52 30 13 105 39 145 50 19 6 44 14 55
19 11 5 61 23 110 39 50 17 115 40 145 51 30 12 69 25 85 30 36 9 130 41 205
70 30 12 75 28 100 35 25 7 97 32 160 55 63 23 129 46 145 50 17 5 82 27 145
49 215 77 235 84 265 92 37 10 113 36 140 49 31 15 106 40 148 51 21 5 45 14
55 19 9 5 73 28 142 50 69 23 134 45 145 50 11 5 61 23 110 39 50 17 115 40
145 51 30 12 69 25 85 30 31 8 69 21 265 90 63 23 135 47 160 55 25 7 90 30
145 51 55 20 120 43 145 50 55 16 128 41 155 54 11 5 56 20 100 35 44 14 89
30 100 35 11 5 36 13 55 19 19 5 80 26 135 46 55 20 120 43 145 50 25 8 90 30
145 50 55 21 120 43 145 51 96 30 237 103 310 159 106 83 176 168 244 299 25
49 57 103 70 121 60 79 105 176 150 328 15 48 39 109 54 135 53 91 104 219
189 477 14 44 37 108 50 143 13 34 44 124 69 200 25 75 49 146 54 157 9 19 76
217 135 395 15 47 33 99 40 115 7 17 25 66 39 110 35 109 55 166 66 190 5 11
13 36 19 55 5 19 28 87 51 150 22 63 47 135 54 160 8 25 30 90 51 145 20 55
43 120 50 145 15 48 89 263 155 450 23 63 46 133 51 155 6 21 14 44 18 50 4 5
13 28 19 50 11 40 68 204 90 258 7 16 12 35 12 44 0 8 6 29 14 46 12 29 29 76
65 177 7 19 19 55 26 80 7 25 23 70 35 100 28 74 61 168 71 205 4 17 26 82 49
145 23 63 45 129 50 145 5 17 28 82 50 145 23 63 46 131 51 150 6 19 14 44 19
55 10 22 66 187 106 310 14 44 30 89 35 100 5 11 15 40 24 65 8 25 25 72 37
105 11 33 24 74 28 90 5 17 18 55 30 85 11 30 32 91 46 135 15 44 32 94 39
110 7 17 20 50 28 75 31 97 117 350 152 445 20 55 40 114 45 130 4 17 17 57
28 90 12 33 29 80 37 105 9 25 20 54 25 65 5 11 15 43 23 70 8 28 45 136 82
240 94 269 144 415 155 450 5 17 27 82 50 145 48 133 65 190 85 281 8 36 35
127 60 202 25 75 50 171 56 214 22 152 -8 337 -74 469 -69 138 -96 167 -522
583 -82 81 -323 315 -534 521 -211 206 -416 406 -455 444 -240 232 -550 534
-997 971 -135 132 -398 389 -584 570 -187 182 -419 407 -515 502 -96 94 -202
197 -235 229 -33 31 -238 231 -455 443 -217 213 -462 452 -545 531 -82 80
-236 231 -343 335 -106 105 -242 237 -302 295 -59 58 -242 236 -407 396 -164
160 -327 319 -363 353 -206 197 -415 281 -694 281 -68 0 -125 -2 -127 -4z
m521 -2247 c30 -28 134 -128 230 -222 221 -217 897 -877 959 -936 25 -24 138
-135 251 -245 113 -111 282 -275 375 -365 164 -158 337 -327 755 -736 228
-223 444 -433 965 -940 460 -447 705 -687 970 -946 110 -108 244 -238 298
-290 l99 -94 -5 -45 c-2 -25 -23 -97 -46 -160 -23 -63 -48 -136 -56 -162 -7
-25 -16 -52 -20 -58 -4 -7 -11 -26 -15 -44 -5 -17 -18 -56 -30 -86 -12 -30
-28 -75 -36 -100 -7 -25 -32 -97 -54 -160 -23 -63 -46 -133 -51 -154 -5 -22
-13 -44 -17 -50 -9 -14 -69 -188 -86 -248 -8 -25 -17 -52 -21 -58 -4 -7 -11
-26 -16 -44 -4 -17 -26 -83 -49 -146 -23 -63 -46 -131 -51 -150 -6 -19 -14
-44 -19 -55 -13 -29 -40 -105 -49 -140 -4 -17 -13 -40 -19 -51 -6 -12 -16 -39
-21 -60 -5 -22 -26 -84 -46 -139 -20 -55 -52 -145 -71 -200 -18 -55 -43 -127
-55 -160 -11 -33 -27 -80 -34 -105 -8 -25 -30 -90 -51 -145 -20 -55 -43 -120
-50 -145 -7 -25 -32 -97 -54 -160 -23 -63 -45 -128 -50 -145 -13 -44 -79 -237
-89 -260 -14 -33 -47 -126 -74 -210 -14 -44 -36 -105 -47 -135 -12 -30 -26
-71 -31 -90 -5 -19 -20 -66 -34 -105 -14 -38 -48 -135 -75 -215 -27 -80 -81
-237 -120 -350 -39 -113 -77 -223 -85 -245 -7 -22 -18 -53 -24 -70 -5 -16 -20
-59 -32 -95 -12 -36 -28 -79 -35 -97 -8 -17 -14 -36 -14 -42 0 -6 -6 -25 -14
-43 -8 -18 -26 -69 -40 -113 -14 -44 -35 -105 -46 -135 -12 -30 -28 -75 -35
-100 -8 -25 -32 -97 -55 -160 -23 -63 -46 -133 -51 -155 -6 -21 -14 -44 -18
-50 -4 -5 -13 -28 -19 -50 -6 -22 -29 -92 -52 -155 -23 -63 -45 -128 -50 -145
-5 -16 -27 -82 -50 -145 -23 -63 -47 -135 -54 -160 -17 -58 -44 -110 -57 -110
-7 0 -50 37 -97 83 -47 45 -99 96 -116 112 -119 113 -548 526 -676 650 -148
144 -507 490 -819 790 -80 77 -204 197 -276 266 -71 70 -155 150 -185 179 -30
29 -116 111 -190 183 -74 72 -178 171 -230 221 -52 50 -183 176 -290 281 -108
104 -299 289 -425 410 -126 121 -302 290 -390 375 -88 86 -205 198 -259 250
-54 52 -129 124 -166 160 -36 36 -172 166 -301 290 -129 124 -299 288 -379
366 -80 78 -180 175 -223 215 -79 74 -79 74 -74 119 2 25 14 70 26 100 12 30
28 73 36 95 7 22 23 65 35 95 37 97 61 164 72 200 5 19 14 39 19 45 5 5 9 16
9 25 0 8 7 28 15 43 8 15 19 42 24 60 10 35 66 189 101 277 29 76 59 158 71
200 6 19 15 39 20 45 5 5 9 16 9 25 1 8 9 33 20 55 11 22 19 44 20 50 0 9 28
85 51 140 12 29 39 105 51 145 5 19 14 40 18 45 4 6 13 26 18 45 13 42 43 125
72 200 12 30 37 98 56 150 19 52 41 111 48 130 8 19 28 76 45 125 18 50 36 99
42 110 5 11 13 34 18 50 5 17 19 55 31 85 12 30 34 91 50 135 16 44 39 105 50
135 12 30 30 78 39 105 33 89 92 249 105 285 8 19 28 76 45 125 18 50 36 99
41 110 31 71 50 119 50 129 0 6 6 23 14 38 8 15 17 42 21 60 4 18 14 49 22 68
40 93 42 100 92 240 27 76 68 186 79 210 5 14 27 72 47 130 21 58 52 143 70
190 17 47 42 114 55 150 12 36 29 79 36 97 8 17 14 34 14 38 0 4 6 21 14 38 8
18 26 66 40 107 14 41 37 104 51 140 15 36 30 76 35 90 5 14 25 70 45 125 21
55 44 118 52 140 7 22 20 54 28 72 8 17 15 35 15 41 0 5 19 58 41 118 40 106
95 253 120 324 7 19 18 49 24 65 7 17 23 57 35 90 12 33 27 76 35 95 7 19 22
62 34 95 37 99 64 155 75 155 6 0 36 -23 66 -51z m-1840 -2 c0 -12 -14 -60
-31 -107 -17 -47 -34 -96 -39 -110 -4 -14 -22 -59 -39 -100 -17 -41 -31 -82
-31 -90 -1 -8 -9 -33 -20 -55 -11 -22 -19 -47 -20 -55 0 -9 -4 -20 -9 -25 -5
-6 -14 -28 -21 -50 -7 -22 -16 -44 -20 -50 -4 -5 -11 -26 -15 -45 -4 -19 -14
-48 -21 -65 -22 -52 -80 -206 -119 -315 -20 -58 -42 -118 -50 -135 -7 -16 -30
-77 -50 -135 -45 -127 -74 -205 -90 -245 -7 -16 -24 -64 -39 -105 -23 -68 -38
-109 -83 -225 -8 -22 -30 -80 -48 -130 -19 -49 -43 -115 -55 -145 -11 -30 -35
-95 -51 -145 -17 -49 -35 -94 -40 -99 -5 -6 -9 -17 -9 -25 0 -9 -7 -29 -15
-44 -8 -15 -19 -42 -24 -60 -5 -18 -25 -75 -44 -127 -80 -217 -106 -287 -118
-320 -7 -19 -28 -75 -46 -125 -35 -91 -42 -110 -83 -220 -12 -33 -28 -76 -35
-95 -7 -19 -23 -62 -35 -95 -12 -33 -29 -75 -36 -93 -8 -18 -14 -38 -14 -45 0
-7 -7 -25 -15 -40 -8 -15 -19 -42 -24 -60 -5 -18 -19 -57 -31 -87 -12 -30 -27
-73 -35 -95 -7 -22 -23 -65 -35 -95 -12 -30 -27 -73 -35 -95 -7 -22 -23 -65
-35 -95 -12 -30 -27 -73 -35 -95 -7 -22 -23 -65 -35 -95 -12 -30 -25 -66 -30
-80 -5 -14 -21 -56 -35 -95 -15 -38 -31 -84 -36 -102 -5 -18 -16 -45 -24 -60
-8 -15 -15 -33 -15 -40 0 -7 -6 -27 -14 -45 -7 -18 -24 -60 -36 -93 -12 -33
-28 -76 -35 -95 -7 -19 -23 -62 -35 -95 -22 -60 -29 -77 -71 -190 -12 -33 -25
-69 -30 -80 -12 -29 -39 -105 -51 -145 -5 -19 -14 -39 -18 -45 -4 -5 -13 -26
-18 -45 -6 -19 -20 -60 -32 -90 -31 -79 -89 -238 -105 -285 -27 -81 -54 -134
-78 -149 -32 -22 -189 -84 -277 -111 -25 -8 -63 -21 -85 -29 -93 -35 -185 -68
-260 -93 -44 -14 -84 -29 -90 -33 -5 -5 -26 -13 -45 -18 -19 -6 -87 -29 -150
-52 -63 -23 -128 -45 -145 -50 -16 -4 -59 -20 -95 -35 -36 -14 -125 -46 -198
-70 -73 -25 -140 -49 -150 -55 -9 -5 -53 -21 -97 -35 -101 -33 -240 -83 -282
-101 -17 -8 -36 -14 -42 -14 -6 0 -50 -15 -99 -34 -48 -18 -96 -36 -107 -39
-11 -3 -51 -18 -90 -32 -38 -14 -108 -39 -155 -55 -47 -16 -110 -38 -140 -50
-30 -12 -93 -34 -140 -50 -163 -56 -175 -61 -195 -70 -25 -12 -96 -37 -155
-55 -44 -13 -69 -22 -180 -65 -30 -12 -93 -34 -140 -50 -47 -16 -116 -41 -155
-55 -38 -14 -88 -32 -110 -40 -22 -7 -85 -29 -140 -49 -55 -20 -138 -50 -185
-66 -47 -16 -130 -46 -185 -66 -55 -20 -163 -58 -240 -85 -77 -27 -149 -53
-160 -58 -11 -5 -76 -29 -145 -52 -69 -23 -134 -46 -145 -52 -11 -5 -33 -14
-50 -18 -16 -4 -61 -20 -100 -34 -38 -15 -83 -30 -100 -36 -16 -5 -39 -13 -50
-18 -30 -13 -112 -42 -285 -101 -47 -16 -110 -39 -140 -50 -98 -38 -254 -91
-281 -97 -15 -3 -29 -1 -32 4 -7 10 13 76 64 218 17 50 40 113 50 140 9 28 34
95 54 150 20 55 41 114 47 130 5 17 14 39 19 50 8 19 25 66 54 150 7 22 23 65
35 95 11 30 34 93 50 140 16 47 39 110 50 140 25 64 46 123 84 235 15 44 31
88 36 97 6 10 23 57 40 105 16 49 36 106 44 128 8 22 27 72 41 110 14 39 29
79 32 90 5 21 40 115 54 150 9 20 29 78 53 150 8 22 31 85 51 140 20 55 43
118 50 140 8 22 23 65 35 95 12 30 27 73 35 95 25 75 46 130 55 150 5 11 21
56 36 100 51 150 55 160 64 180 12 26 39 101 51 145 6 19 14 44 19 55 20 43
43 104 70 185 50 145 60 174 75 207 8 17 15 38 15 46 0 9 4 18 9 22 5 3 12 20
16 38 6 31 34 109 61 174 8 17 14 37 14 45 0 8 4 18 9 23 5 6 16 33 24 60 9
28 25 75 37 105 12 30 26 69 31 87 5 18 16 45 24 60 8 15 15 36 15 45 0 10 6
32 14 50 8 18 25 60 37 93 12 33 25 69 30 80 4 11 20 56 34 100 14 44 33 92
40 107 8 14 15 35 15 45 0 10 6 27 13 38 8 11 19 38 25 60 5 22 20 65 32 95
12 30 27 73 35 95 17 49 42 118 90 250 20 55 41 115 46 133 25 81 49 103 184
162 28 12 68 30 91 41 23 10 46 19 52 19 6 0 23 6 39 14 15 8 53 24 83 37 30
12 73 30 95 39 22 10 58 25 80 34 22 10 54 24 70 31 17 8 53 23 80 35 28 12
59 26 70 31 11 4 72 29 135 55 63 25 140 57 170 71 100 46 134 61 200 86 113
44 218 89 321 136 25 12 49 21 53 21 3 0 34 13 68 29 35 16 106 45 158 66 52
21 115 46 140 57 25 11 59 26 75 33 17 7 53 23 80 36 28 12 64 27 80 34 17 7
46 19 65 28 19 8 64 27 100 41 60 23 126 51 225 95 82 37 165 72 251 106 49
20 98 40 109 45 11 5 38 16 60 26 89 37 131 56 160 69 17 8 59 26 95 40 36 14
74 30 85 35 11 5 49 21 85 35 62 25 96 39 168 71 17 8 47 20 65 28 71 32 105
46 167 71 36 14 74 30 85 35 11 5 49 21 85 36 35 14 92 38 125 54 93 42 172
75 273 115 51 19 101 39 110 44 9 4 33 15 52 24 19 8 58 25 85 38 59 26 93 40
160 67 58 23 212 87 270 112 22 10 58 25 80 34 22 10 56 24 75 33 66 30 95 42
150 64 63 25 460 193 505 215 17 7 42 14 58 14 21 0 27 -5 27 -23z m-1673
-7719 c28 -21 276 -260 737 -709 105 -102 236 -228 291 -280 110 -104 276
-264 549 -530 99 -96 187 -181 196 -189 42 -37 210 -198 365 -350 94 -91 287
-278 430 -415 143 -137 330 -317 415 -400 252 -245 351 -340 415 -400 33 -32
134 -130 225 -219 91 -88 208 -201 260 -251 52 -49 172 -164 265 -255 94 -91
274 -264 400 -385 357 -342 565 -548 565 -561 0 -19 -34 -42 -74 -50 -22 -4
-51 -13 -65 -20 -14 -8 -32 -14 -39 -14 -8 0 -28 -7 -45 -15 -36 -16 -106 -42
-152 -55 -16 -5 -82 -27 -145 -50 -209 -74 -235 -83 -265 -90 -16 -5 -73 -24
-125 -43 -124 -46 -141 -52 -230 -82 -41 -13 -100 -34 -130 -46 -30 -11 -73
-26 -95 -31 -22 -6 -45 -15 -50 -19 -6 -4 -29 -12 -50 -18 -22 -5 -83 -25
-135 -44 -113 -42 -129 -48 -245 -87 -135 -46 -242 -83 -420 -146 -88 -31
-180 -62 -205 -69 -51 -16 -125 -42 -155 -54 -32 -13 -124 -46 -200 -70 -38
-12 -79 -27 -90 -32 -32 -14 -107 -40 -150 -51 -22 -6 -45 -15 -50 -19 -6 -4
-29 -12 -50 -18 -34 -8 -197 -64 -245 -84 -8 -4 -55 -20 -105 -36 -49 -17
-142 -49 -205 -71 -63 -23 -128 -45 -145 -50 -16 -5 -82 -27 -145 -50 -63 -23
-135 -47 -160 -55 -25 -7 -90 -30 -145 -51 -55 -20 -120 -43 -145 -50 -25 -7
-90 -29 -145 -49 -55 -20 -145 -52 -200 -70 -127 -44 -282 -99 -318 -113 -16
-7 -34 -12 -40 -12 -7 0 -55 -16 -107 -36 -52 -19 -147 -53 -210 -74 -63 -22
-167 -58 -230 -80 -63 -23 -129 -45 -146 -49 -33 -9 -115 -37 -149 -52 -29
-12 -103 -38 -155 -54 -25 -7 -90 -30 -145 -50 -166 -61 -244 -85 -273 -85
-27 0 -70 42 -911 898 -263 268 -1454 1476 -1836 1861 -192 195 -384 388 -425
431 -41 42 -381 387 -755 766 -1027 1039 -994 1005 -985 1029 4 11 20 24 36
29 16 5 58 20 94 34 36 14 81 29 100 34 19 5 73 24 120 42 47 18 135 50 195
70 61 21 124 44 142 52 17 8 35 14 39 14 5 0 31 9 59 20 27 10 97 36 155 56
58 19 114 40 125 45 11 5 34 13 50 18 17 5 82 28 145 51 63 23 129 46 145 51
17 5 39 13 50 18 11 6 61 24 110 40 50 16 115 39 145 51 30 11 93 34 140 50
47 16 110 38 140 50 30 12 93 34 140 50 47 16 117 41 155 55 39 15 81 30 95
35 14 5 77 27 140 50 63 23 131 46 150 52 19 5 40 13 45 18 6 4 46 19 90 33
44 14 112 38 150 52 39 14 86 31 105 37 19 5 40 13 45 18 6 4 28 12 50 18 40
11 58 17 250 87 55 20 140 50 190 66 49 17 94 34 100 38 5 5 21 11 35 14 14 3
57 17 95 31 39 15 104 38 145 52 41 14 89 32 107 40 17 8 35 14 41 14 5 0 54
16 108 36 55 20 124 45 154 57 30 11 64 24 75 28 11 5 56 20 100 34 44 14 89
30 100 35 20 9 32 14 195 70 47 16 110 39 140 50 65 25 122 46 245 88 50 17
115 41 145 52 30 12 75 28 100 35 25 7 70 23 100 35 30 12 73 27 95 35 22 7
85 30 140 50 55 20 118 43 140 50 35 12 160 57 320 114 67 24 67 24 102 -1z"/>
</g>
</svg>
