<?xml version="1.0" standalone="no"?>
<!DOCTYPE svg PUBLIC "-//W3C//DTD SVG 20010904//EN"
 "http://www.w3.org/TR/2001/REC-SVG-20010904/DTD/svg10.dtd">
<svg version="1.0" xmlns="http://www.w3.org/2000/svg"
 width="512.000000pt" height="512.000000pt" viewBox="0 0 512.000000 512.000000"
 preserveAspectRatio="xMidYMid meet">
<metadata>
Created by potrace 1.11, written by Peter Selinger 2001-2013
</metadata>
<g transform="translate(0.000000,512.000000) scale(0.100000,-0.100000)"
fill="#000000" stroke="none">
<path d="M2460 5063 c-171 -12 -441 -73 -607 -137 -572 -218 -1022 -658 -1256
-1226 -64 -156 -125 -391 -142 -550 -4 -36 -9 -78 -11 -95 -6 -47 -6 -314 0
-375 19 -182 62 -379 116 -535 110 -314 289 -597 522 -826 48 -48 88 -90 88
-93 0 -3 -7 -6 -16 -6 -19 0 -124 -52 -167 -82 -119 -83 -199 -201 -237 -345
-17 -64 -19 -112 -20 -388 0 -303 0 -315 20 -335 20 -20 26 -20 1878 -20
l1858 0 22 21 c22 20 22 23 22 335 -1 267 -4 325 -19 382 -53 202 -208 371
-392 426 l-37 11 97 100 c115 120 198 222 275 339 61 92 152 261 184 341 81
201 102 270 142 480 34 171 45 454 26 608 -3 26 -8 66 -11 90 -3 23 -7 53 -10
67 -3 14 -8 39 -11 55 -3 17 -12 57 -20 90 -9 33 -17 68 -19 77 -18 88 -122
340 -197 473 -171 304 -433 587 -708 762 -30 20 -67 44 -81 54 -64 44 -306
153 -432 194 -132 43 -319 86 -442 100 -67 8 -345 13 -415 8z"/>
<path d="M4548 4918 c-9 -7 -27 -35 -39 -63 -31 -66 -100 -134 -171 -167 -94
-45 -91 -92 9 -140 75 -37 129 -93 166 -172 43 -90 91 -88 138 5 38 76 92 130
168 168 34 18 62 39 66 51 12 37 -5 60 -66 91 -75 38 -130 92 -168 167 -36 71
-66 88 -103 60z"/>
<path d="M372 4464 c-52 -27 -71 -81 -47 -137 33 -78 146 -89 188 -18 57 97
-41 205 -141 155z"/>
<path d="M4708 4185 c-31 -17 -58 -62 -58 -95 0 -34 28 -78 60 -95 36 -19 63
-19 99 -1 65 34 80 109 34 165 -34 39 -92 50 -135 26z"/>
<path d="M482 1759 c-81 -100 -124 -131 -219 -156 -66 -17 -93 -37 -93 -68 0
-22 12 -36 68 -81 63 -50 116 -152 121 -231 2 -21 32 -43 61 -43 22 0 36 9 57
38 57 76 129 124 218 142 90 19 106 76 36 128 -73 54 -123 130 -136 208 -4 21
-14 49 -21 62 -19 29 -68 30 -92 1z"/>
<path d="M4530 1387 c-57 -29 -43 -82 33 -125 114 -64 210 -198 232 -324 3
-13 7 -45 9 -72 6 -57 23 -78 61 -78 38 0 56 23 57 73 3 177 -102 372 -257
479 -70 48 -107 61 -135 47z"/>
<path d="M372 897 c-75 -42 -74 -157 2 -194 99 -47 196 62 139 158 -26 44 -94
62 -141 36z"/>
<path d="M4820 648 c-23 -22 -25 -37 -8 -73 9 -19 19 -25 43 -25 43 0 69 29
60 68 -10 47 -60 62 -95 30z"/>
<path d="M4832 440 c-22 -9 -42 -46 -42 -78 1 -30 34 -62 70 -68 30 -5 40 -1
64 22 23 24 27 34 22 64 -9 57 -57 82 -114 60z"/>
</g>
</svg>
