<?xml version="1.0" standalone="no"?>
<!DOCTYPE svg PUBLIC "-//W3C//DTD SVG 20010904//EN"
 "http://www.w3.org/TR/2001/REC-SVG-20010904/DTD/svg10.dtd">
<svg version="1.0" xmlns="http://www.w3.org/2000/svg"
 width="640.000000pt" height="640.000000pt" viewBox="0 0 640.000000 640.000000"
 preserveAspectRatio="xMidYMid meet">
<metadata>
Created by potrace 1.11, written by Peter Selinger 2001-2013
</metadata>
<g transform="translate(0.000000,640.000000) scale(0.100000,-0.100000)"
fill="#000000" stroke="none">
<path d="M3020 6327 c-3 -3 -27 -7 -55 -11 -221 -27 -504 -100 -708 -183 -930
-376 -1581 -1238 -1695 -2242 -16 -147 -7 -602 14 -706 3 -11 7 -36 10 -55 3
-19 12 -63 19 -96 8 -34 17 -74 20 -88 3 -14 7 -37 10 -50 23 -110 109 -343
183 -496 145 -299 286 -495 552 -770 88 -91 91 -95 68 -104 -254 -101 -401
-248 -482 -483 -13 -37 -27 -86 -31 -108 -11 -58 -14 -774 -4 -809 11 -39 19
-45 60 -52 19 -4 1067 -8 2329 -9 2116 -3 2296 -2 2314 14 10 9 23 27 28 41
10 24 12 632 3 753 -20 278 -227 548 -488 638 l-63 22 45 47 c295 306 413 464
568 760 110 212 215 513 248 713 3 17 10 55 15 82 26 141 35 268 34 510 0 191
-8 277 -40 445 -8 41 -16 84 -18 96 -50 261 -218 658 -381 904 -165 248 -385
490 -598 658 -357 282 -768 462 -1267 553 -94 18 -167 22 -400 26 -157 2 -288
2 -290 0z"/>
<path d="M5679 6138 c-12 -13 -27 -37 -35 -54 -16 -38 -76 -117 -112 -150 -15
-14 -57 -42 -94 -64 -81 -49 -98 -65 -98 -94 0 -28 28 -54 104 -97 66 -37 148
-114 172 -163 39 -78 79 -126 104 -126 35 1 49 14 103 102 53 85 127 157 199
194 86 43 110 92 67 133 -12 11 -51 37 -86 58 -72 42 -153 124 -185 187 -45
91 -96 118 -139 74z"/>
<path d="M472 5580 c-87 -39 -104 -140 -36 -211 88 -92 236 -21 222 106 -11
95 -98 144 -186 105z"/>
<path d="M5915 5242 c-57 -13 -112 -95 -99 -149 15 -63 74 -113 133 -115 65
-2 141 69 136 127 -1 11 -2 29 -3 41 -1 11 -14 34 -29 51 -36 39 -88 56 -138
45z"/>
<path d="M644 2222 c-12 -2 -48 -32 -80 -68 -74 -82 -131 -119 -232 -149 -81
-25 -109 -46 -117 -84 -3 -17 14 -39 74 -96 86 -83 143 -181 155 -268 6 -39
13 -52 37 -66 45 -27 73 -16 136 56 62 70 148 127 221 144 74 19 119 45 126
75 8 31 4 37 -89 129 -74 73 -112 139 -134 230 -20 82 -43 106 -97 97z"/>
<path d="M5646 1719 c-50 -39 -28 -85 74 -152 70 -46 132 -107 179 -177 66
-98 90 -165 107 -305 9 -80 32 -103 94 -96 8 1 23 12 33 23 40 47 7 252 -63
388 -66 128 -184 250 -304 314 -59 31 -85 33 -120 5z"/>
<path d="M495 1132 c-116 -26 -134 -202 -24 -251 119 -54 230 65 173 185 -24
50 -90 79 -149 66z"/>
<path d="M6025 805 c-29 -28 -30 -34 -11 -80 14 -31 19 -35 54 -35 62 0 93 48
66 101 -23 46 -72 52 -109 14z"/>
<path d="M6043 550 c-26 -11 -53 -59 -53 -94 0 -59 82 -106 138 -79 85 41 65
166 -29 178 -19 3 -44 0 -56 -5z"/>
</g>
</svg>
