<?xml version="1.0" standalone="no"?>
<!DOCTYPE svg PUBLIC "-//W3C//DTD SVG 20010904//EN"
 "http://www.w3.org/TR/2001/REC-SVG-20010904/DTD/svg10.dtd">
<svg version="1.0" xmlns="http://www.w3.org/2000/svg"
 width="1472.000000pt" height="1472.000000pt" viewBox="0 0 1472.000000 1472.000000"
 preserveAspectRatio="xMidYMid meet">
<metadata>
Created by potrace 1.11, written by Peter Selinger 2001-2013
</metadata>
<g transform="translate(0.000000,1472.000000) scale(0.100000,-0.100000)"
fill="#000000" stroke="none">
<path d="M1420 14643 c-40 -2 -146 -17 -220 -30 -139 -24 -304 -87 -465 -178
-38 -21 -72 -41 -75 -45 -3 -3 -36 -29 -75 -57 -191 -140 -398 -421 -465 -628
-7 -22 -16 -44 -20 -50 -14 -18 -59 -218 -68 -305 -12 -107 -14 -11868 -2
-11960 58 -449 278 -809 645 -1058 161 -109 394 -200 580 -228 28 -4 59 -9 70
-11 37 -7 11969 -8 12045 -1 91 9 149 17 172 24 9 3 25 6 35 8 101 20 229 68
353 132 293 153 530 407 664 713 55 126 84 231 112 411 9 59 11 11795 2 11920
-52 707 -618 1272 -1338 1337 -256 23 -505 -22 -760 -139 -144 -67 -259 -146
-379 -261 -261 -252 -409 -554 -448 -917 -3 -36 -7 -2372 -7 -5192 0 -4630 -1
-5128 -15 -5129 -9 0 -1991 -1 -4406 -1 l-4390 -1 0 874 0 874 2855 1 c1570 0
2869 3 2885 7 17 3 50 9 75 12 195 26 453 133 633 264 292 210 512 556 573
899 2 12 6 34 9 50 3 15 8 54 11 87 9 80 9 7147 0 7250 -42 485 -336 927 -769
1155 -253 133 -585 199 -840 165 -29 -4 -66 -8 -84 -10 -17 -2 -49 -8 -70 -14
-21 -6 -49 -12 -63 -14 -60 -11 -223 -74 -320 -124 -244 -126 -445 -317 -588
-558 -94 -159 -173 -404 -189 -582 -4 -48 -7 -1345 -8 -2880 0 -1536 -2 -2794
-5 -2794 -3 -1 -927 -2 -2054 -3 -1360 -1 -2050 2 -2052 9 -2 5 -5 1290 -7
2855 -1 1565 -6 2859 -10 2875 -4 17 -10 41 -12 55 -3 14 -8 36 -11 50 -3 14
-7 36 -10 49 -17 80 -98 275 -160 381 -87 150 -281 357 -424 452 -145 97 -293
164 -455 208 -147 40 -321 60 -455 53z"/>
</g>
</svg>
