<?xml version="1.0" standalone="no"?>
<!DOCTYPE svg PUBLIC "-//W3C//DTD SVG 20010904//EN"
 "http://www.w3.org/TR/2001/REC-SVG-20010904/DTD/svg10.dtd">
<svg version="1.0" xmlns="http://www.w3.org/2000/svg"
 width="512.000000pt" height="512.000000pt" viewBox="0 0 512.000000 512.000000"
 preserveAspectRatio="xMidYMid meet">
<metadata>
Created by potrace 1.11, written by Peter Selinger 2001-2013
</metadata>
<g transform="translate(0.000000,512.000000) scale(0.100000,-0.100000)"
fill="#000000" stroke="none">
<path d="M2155 5100 c-115 -21 -263 -69 -350 -113 -33 -17 -62 -31 -65 -32 -3
0 -51 -30 -105 -66 -181 -121 -355 -306 -462 -492 -30 -51 -52 -79 -66 -82
-12 -2 -49 -9 -82 -16 -355 -68 -673 -358 -809 -739 -52 -144 -70 -249 -70
-420 0 -128 7 -200 33 -305 93 -377 335 -666 686 -816 148 -63 397 -85 561
-49 110 24 145 36 250 86 l91 44 69 -31 c106 -48 234 -86 360 -106 62 -10 303
-10 369 -1 146 21 351 91 468 160 57 33 61 34 95 9 75 -52 249 -127 347 -149
95 -22 110 -24 235 -27 209 -6 358 27 545 120 332 165 571 469 675 860 35 132
43 193 44 345 1 255 -41 445 -146 655 -150 300 -384 516 -687 634 -41 16 -118
38 -206 57 -16 3 -95 8 -175 9 -109 3 -166 -1 -229 -14 l-83 -17 -37 39 c-30
33 -102 104 -145 142 -78 70 -179 138 -285 191 -94 46 -268 108 -336 118 -22
3 -51 8 -65 11 -64 16 -327 12 -425 -5z m405 -296 c97 -18 188 -48 274 -91 63
-31 175 -101 202 -127 6 -6 35 -31 63 -54 l51 -44 -80 -49 c-139 -84 -233
-163 -333 -282 -82 -97 -97 -146 -67 -214 50 -111 179 -124 257 -25 165 207
399 353 653 407 95 21 294 13 389 -14 253 -74 464 -257 594 -516 35 -70 83
-211 92 -269 3 -17 9 -54 14 -82 13 -84 6 -278 -14 -374 -3 -14 -8 -38 -10
-54 -3 -16 -10 -37 -16 -47 -5 -11 -8 -19 -5 -19 6 0 -40 -113 -74 -180 -116
-226 -326 -409 -554 -479 -94 -29 -108 -31 -221 -38 -113 -6 -252 18 -340 58
-27 12 -55 23 -61 25 -11 2 -53 29 -183 117 -77 54 -116 51 -212 -12 -276
-182 -528 -228 -857 -157 -54 12 -153 52 -239 97 -112 58 -145 59 -231 6 -166
-102 -242 -127 -392 -132 -222 -7 -388 61 -555 230 -177 178 -259 386 -259
655 0 122 8 180 40 282 84 267 269 470 506 556 75 27 122 36 240 47 70 6 98
32 163 152 101 185 205 312 345 421 229 177 547 257 820 206z"/>
<path d="M949 1586 c-2 -2 -22 -6 -44 -9 -117 -14 -273 -98 -363 -196 -102
-111 -163 -238 -197 -411 -17 -86 -14 -316 5 -390 7 -25 13 -52 15 -60 15 -64
73 -186 118 -245 52 -69 145 -151 210 -186 68 -37 71 -38 172 -68 69 -20 90
-20 1880 -21 l1811 0 51 25 c83 42 124 109 124 202 0 54 -13 86 -75 187 -76
124 -107 246 -102 401 5 152 40 250 137 382 56 77 73 126 66 194 -6 57 -25 94
-69 136 -72 68 81 63 -1922 63 -997 0 -1814 -2 -1817 -4z m3412 -353 c-76
-145 -101 -241 -106 -403 -6 -171 22 -315 86 -459 16 -35 29 -65 29 -67 0 -2
-762 -4 -1693 -4 -1842 0 -1756 -3 -1847 55 -91 57 -157 158 -186 284 -13 55
-12 237 1 299 26 117 92 230 167 283 17 12 56 33 87 45 l56 23 1718 1 1718 0
-30 -57z"/>
<path d="M1192 930 c-52 -32 -74 -76 -69 -138 4 -61 28 -99 78 -124 32 -17
112 -18 1248 -18 1213 0 1213 0 1251 21 48 27 74 72 74 129 0 60 -28 105 -80
130 -40 20 -64 20 -1255 20 -1191 0 -1215 -1 -1247 -20z"/>
</g>
</svg>
